# xmcd
#
# Track frame offsets:
#	150
#	16435
#	27352
#	34012
#	46678
#	62365
#	73888
#	85816
#	100089
#	113750
#	131170
#	146654
#	164263
#	177388
#	191483
#	206131
#	220631
#	231630
#	246383
#	259225
#	274402
#	288621
#	304821
#	317230
#	327741
#
# Disc length: 4544 seconds
#
# Revision: 1
# Processed by: cddbd v1.5.2PL0 Copyright (c) Steve Scherf et al.
# Submitted via: audiograbber 1.83.01
#
DISCID=8711be19
DTITLE=Western Heart - Western Heart 075
DYEAR=2007
DGENRE=Country
TTITLE0=When I Was A Cowboy  - Shady Creek Outlaws
TTITLE1=Honky Tonk Girl  - Erin Hay
TTITLE2=Peggy Sue  - Hal Willis
TTITLE3=1-800 Cry Baby - Ann Brown
TTITLE4=American Cowboy  - Billy Chernoff
TTITLE5=I Took A Wrong Turn  - Cheryl K Warner
TTITLE6=Honky Tonk Blues  - David Cline
TTITLE7=Everytime You´re Near  - Joy Adams
TTITLE8=You Weren´t There - Jose Daniel
TTITLE9=Medley Of Cc Rider  - Jim Marlboro
TTITLE10=Out Of The Blue  - Sara Pace
TTITLE11=Running Down The Road  - Dough Jones
TTITLE12=Only Time Will Tell  - The Matekies
TTITLE13=They´ll Never Take Her Love From Me - Jimmy Eaves
TTITLE14=Dear Old Guitar  - Shy Ann Mailen
TTITLE15=Walz With Me Tonight  - Fergal Flatherty
TTITLE16=Fishers Of Men  - Desree Liona Crawford
TTITLE17=Walk The Dog  - Charlie Lesueur
TTITLE18=Have You Kissed Your Chrildren Today  - Ervin Allen
TTITLE19=Wishes  - Jim Russ
TTITLE20=Takes Ome, Time Off  - Herman Lammers Meyer
TTITLE21=Too Cold At Home - Randy Michaud
TTITLE22=Boss And Work Are Four Letter Words - Doc Killian
TTITLE23=Time Train - Ernie Ashworth
TTITLE24=Jesus, Thank You  - Dave A. Pendergraf
EXTD=
EXTT0=
EXTT1=
EXTT2=
EXTT3=
EXTT4=
EXTT5=
EXTT6=
EXTT7=
EXTT8=
EXTT9=
EXTT10=
EXTT11=
EXTT12=
EXTT13=
EXTT14=
EXTT15=
EXTT16=
EXTT17=
EXTT18=
EXTT19=
EXTT20=
EXTT21=
EXTT22=
EXTT23=
EXTT24=
PLAYORDER=
